<?xml version="1.0" encoding="UTF-8" standalone="no"?>
<svg
   xmlns:dc="http://purl.org/dc/elements/1.1/"
   xmlns:cc="http://creativecommons.org/ns#"
   xmlns:rdf="http://www.w3.org/1999/02/22-rdf-syntax-ns#"
   xmlns:svg="http://www.w3.org/2000/svg"
   xmlns="http://www.w3.org/2000/svg"
   xmlns:sodipodi="http://sodipodi.sourceforge.net/DTD/sodipodi-0.dtd"
   xmlns:inkscape="http://www.inkscape.org/namespaces/inkscape"
   version="1.1"
   id="svg3883"
   height="125"
   width="180"
   sodipodi:docname="wetterturnier-logo.svg"
   inkscape:version="0.92.2 (5c3e80d, 2017-08-06)">
  <sodipodi:namedview
     pagecolor="#ffffff"
     bordercolor="#666666"
     borderopacity="1"
     objecttolerance="10"
     gridtolerance="10"
     guidetolerance="10"
     inkscape:pageopacity="0"
     inkscape:pageshadow="2"
     inkscape:window-width="1920"
     inkscape:window-height="1016"
     id="namedview1176"
     showgrid="false"
     inkscape:zoom="6.584"
     inkscape:cx="90"
     inkscape:cy="62.5"
     inkscape:window-x="0"
     inkscape:window-y="27"
     inkscape:window-maximized="1"
     inkscape:current-layer="layer1" />
  <defs
     id="defs3885" />
  <metadata
     id="metadata3888">
    <rdf:RDF>
      <cc:Work
         rdf:about="">
        <dc:format>image/svg+xml</dc:format>
        <dc:type
           rdf:resource="http://purl.org/dc/dcmitype/StillImage" />
        <dc:title />
      </cc:Work>
    </rdf:RDF>
  </metadata>
  <g
     transform="translate(0,-927.36218)"
     id="layer1">
    <g
       transform="matrix(0.35541776,0,0,0.35541776,263.7421,594.15805)"
       id="g6403-9-4-9-0">
      <g
         transform="translate(0,1.3397575)"
         id="g6285-1-9-2-5">
        <g
           transform="translate(-278.27605,100.97029)"
           id="g5939-5-8-6-8-4">
          <path
             style="fill:#ffffff;fill-opacity:1;stroke:#ffffff;stroke-width:6.69878720999999988;stroke-linejoin:round;stroke-miterlimit:4;stroke-opacity:1;stroke-dasharray:none"
             d="m -245.73493,1045.4687 -24.3125,31.8438 68.96875,0 -44.65625,-31.8438 z"
             id="path5744-9-4-4-7-6-4" />
          <path
             style="fill:#ffffff;fill-opacity:1;stroke:#ffffff;stroke-width:6.69878720999999988;stroke-linejoin:round;stroke-miterlimit:4;stroke-opacity:1;stroke-dasharray:none"
             d="m -245.73493,1045.4687 44.65625,31.8438 -68.96875,0 24.3125,-31.8438 z"
             id="path5742-5-5-8-4-5-3" />
          <path
             style="fill:#ffffff;fill-opacity:1;stroke:#ffffff;stroke-width:6.69878720999999988;stroke-linejoin:round;stroke-miterlimit:4;stroke-opacity:1;stroke-dasharray:none"
             d="m -404.07868,1039.1875 c 1.10365,1.2019 17.49995,19.0561 35.46875,38.125 l 97.3125,0 24.5,-32.0625 -157.28125,-6.0625 z"
             id="path5740-6-5-1-4-0-2" />
          <path
             style="fill:#ffffff;fill-opacity:1;stroke:#ffffff;stroke-width:6.69878720999999988;stroke-linejoin:round;stroke-miterlimit:4;stroke-opacity:1;stroke-dasharray:none"
             d="m -404.07868,1039.1875 157.28125,6.0625 -24.5,32.0625 -97.3125,0 c -17.9688,-19.0689 -34.3651,-36.9231 -35.46875,-38.125 z"
             id="path5738-9-3-6-1-8-9" />
          <path
             style="fill:#ffffff;fill-opacity:1;stroke:#ffffff;stroke-width:6.69878720999999988;stroke-linejoin:round;stroke-miterlimit:4;stroke-opacity:1;stroke-dasharray:none"
             d="m -138.60993,1019 24.03125,58.3125 63.625005,0 32.531249,-36.3438 L -138.60993,1019 z"
             id="path5736-4-0-96-5-6-3" />
          <path
             style="fill:#ffffff;fill-opacity:1;stroke:#ffffff;stroke-width:6.69878720999999988;stroke-linejoin:round;stroke-miterlimit:4;stroke-opacity:1;stroke-dasharray:none"
             d="m -138.60993,1019 120.187504,21.9687 -32.531249,36.3438 -63.625005,0 L -138.60993,1019 z"
             id="path5734-2-2-1-4-3-2" />
          <path
             style="fill:#ffffff;fill-opacity:1;stroke:#ffffff;stroke-width:6.69878720999999988;stroke-linejoin:round;stroke-miterlimit:4;stroke-opacity:1;stroke-dasharray:none"
             d="M -139.73493,1018.9375 -244.64118,1045 l 45.3125,32.3125 83.6875,0 -24.09375,-58.375 z"
             id="path5732-9-4-7-7-6-5" />
          <path
             style="fill:#ffffff;fill-opacity:1;stroke:#ffffff;stroke-width:6.69878720999999988;stroke-linejoin:round;stroke-miterlimit:4;stroke-opacity:1;stroke-dasharray:none"
             d="m -139.73493,1018.9375 24.09375,58.375 -83.6875,0 -45.3125,-32.3125 104.90625,-26.0625 z"
             id="path5730-7-6-9-7-4-7" />
          <path
             style="fill:#ffffff;fill-opacity:1;stroke:#ffffff;stroke-width:6.69878720999999988;stroke-linejoin:round;stroke-miterlimit:4;stroke-opacity:1;stroke-dasharray:none"
             d="m -328.73493,999.65624 -74.59375,38.56246 155.40625,6 -80.8125,-44.56246 z"
             id="path5728-7-6-6-7-7-1" />
          <path
             style="fill:#ffffff;fill-opacity:1;stroke:#ffffff;stroke-width:6.69878720999999988;stroke-linejoin:round;stroke-miterlimit:4;stroke-opacity:1;stroke-dasharray:none"
             d="m -328.73493,999.65624 80.8125,44.56246 -155.40625,-6 74.59375,-38.56246 z"
             id="path5726-6-2-2-6-2-5" />
          <path
             style="fill:#ffffff;fill-opacity:1;stroke:#ffffff;stroke-width:6.69878720999999988;stroke-linejoin:round;stroke-miterlimit:4;stroke-opacity:1;stroke-dasharray:none"
             d="m -16.391176,995.28124 -120.375004,23.06246 118.812504,21.7188 1.5625,-44.78126 z"
             id="path5724-1-1-4-1-8-4" />
          <path
             style="fill:#ffffff;fill-opacity:1;stroke:#ffffff;stroke-width:6.69878720999999988;stroke-linejoin:round;stroke-miterlimit:4;stroke-opacity:1;stroke-dasharray:none"
             d="m -16.391176,995.28124 -1.5625,44.78126 -118.812504,-21.7188 120.375004,-23.06246 z"
             id="path5722-8-5-9-1-3-7" />
          <path
             style="fill:#ffffff;fill-opacity:1;stroke:#ffffff;stroke-width:6.69878720999999988;stroke-linejoin:round;stroke-miterlimit:4;stroke-opacity:1;stroke-dasharray:none"
             d="m -401.98493,984.93744 -2.75,52.90626 74.53125,-38.56246 -71.78125,-14.3438 z"
             id="path5720-3-0-8-4-3-8" />
          <path
             style="fill:#ffffff;fill-opacity:1;stroke:#ffffff;stroke-width:6.69878720999999988;stroke-linejoin:round;stroke-miterlimit:4;stroke-opacity:1;stroke-dasharray:none"
             d="m -401.98493,984.93744 71.78125,14.3438 -74.53125,38.56246 2.75,-52.90626 z"
             id="path5718-6-0-5-1-0-2" />
          <path
             style="fill:#ffffff;fill-opacity:1;stroke:#ffffff;stroke-width:6.69878720999999988;stroke-linejoin:round;stroke-miterlimit:4;stroke-opacity:1;stroke-dasharray:none"
             d="m -249.57868,965.62494 4.1875,78.53136 104.5,-25.9376 -108.6875,-52.59376 z"
             id="path5716-5-4-1-1-4-1" />
          <path
             style="fill:#ffffff;fill-opacity:1;stroke:#ffffff;stroke-width:6.69878720999999988;stroke-linejoin:round;stroke-miterlimit:4;stroke-opacity:1;stroke-dasharray:none"
             d="m -249.57868,965.62494 108.6875,52.59376 -104.5,25.9376 -4.1875,-78.53136 z"
             id="path5714-5-5-9-7-4-0" />
          <path
             style="fill:#ffffff;fill-opacity:1;stroke:#ffffff;stroke-width:6.69878720999999988;stroke-linejoin:round;stroke-miterlimit:4;stroke-opacity:1;stroke-dasharray:none"
             d="m -310.73493,953.71864 -17.28125,45 0.8125,0.1563 -0.4375,0.2187 80.09375,44.18766 -63.1875,-89.56266 z"
             id="path5712-9-2-6-0-9-4" />
          <path
             style="fill:#ffffff;fill-opacity:1;stroke:#ffffff;stroke-width:6.69878720999999988;stroke-linejoin:round;stroke-miterlimit:4;stroke-opacity:1;stroke-dasharray:none"
             d="m -310.73493,953.71864 63.1875,89.56266 -80.09375,-44.18766 0.4375,-0.2187 -0.8125,-0.1563 17.28125,-45 z"
             id="path5710-7-5-6-8-3-0" />
          <path
             style="fill:#ffffff;fill-opacity:1;stroke:#ffffff;stroke-width:6.69878720999999988;stroke-linejoin:round;stroke-miterlimit:4;stroke-opacity:1;stroke-dasharray:none"
             d="m -309.70368,953.37494 63.25,89.65636 -4.15625,-77.81266 -59.09375,-11.8437 z"
             id="path5708-3-5-3-4-7-0" />
          <path
             style="fill:#ffffff;fill-opacity:1;stroke:#ffffff;stroke-width:6.69878720999999988;stroke-linejoin:round;stroke-miterlimit:4;stroke-opacity:1;stroke-dasharray:none"
             d="m -309.70368,953.37494 59.09375,11.8437 4.15625,77.81266 -63.25,-89.65636 z"
             id="path5706-7-9-6-0-8-9" />
          <path
             style="fill:#ffffff;fill-opacity:1;stroke:#ffffff;stroke-width:6.69878720999999988;stroke-linejoin:round;stroke-miterlimit:4;stroke-opacity:1;stroke-dasharray:none"
             d="m -191.48493,952.31244 -57.15625,12.6562 107.5625,52.03136 -50.40625,-64.68756 z"
             id="path5704-0-6-8-3-0-8" />
          <path
             style="fill:#ffffff;fill-opacity:1;stroke:#ffffff;stroke-width:6.69878720999999988;stroke-linejoin:round;stroke-miterlimit:4;stroke-opacity:1;stroke-dasharray:none"
             d="m -191.48493,952.31244 50.40625,64.68756 -107.5625,-52.03136 57.15625,-12.6562 z"
             id="path5702-4-1-0-2-8-9" />
          <path
             style="fill:#ffffff;fill-opacity:1;stroke:#ffffff;stroke-width:6.69878720999999988;stroke-linejoin:round;stroke-miterlimit:4;stroke-opacity:1;stroke-dasharray:none"
             d="m -348.42243,941.62494 -17.75,6 -35.28125,36.4063 72.4375,14.4687 17.5,-45.5313 -36.90625,-11.3437 z"
             id="path5700-2-3-9-8-7-4" />
          <path
             style="fill:#ffffff;fill-opacity:1;stroke:#ffffff;stroke-width:6.69878720999999988;stroke-linejoin:round;stroke-miterlimit:4;stroke-opacity:1;stroke-dasharray:none"
             d="m -348.42243,941.62494 36.90625,11.3437 -17.5,45.5313 -72.4375,-14.4687 35.28125,-36.4063 17.75,-6 z"
             id="path5698-8-7-0-8-4-8" />
          <path
             style="fill:#ffffff;fill-opacity:1;stroke:#ffffff;stroke-width:6.69878720999999988;stroke-linejoin:round;stroke-miterlimit:4;stroke-opacity:1;stroke-dasharray:none"
             d="m -127.89118,939.24994 110.281254,54 -34.999999,-43.9375 -75.281255,-10.0625 z"
             id="path5696-4-7-5-1-6-1" />
          <path
             style="fill:#ffffff;fill-opacity:1;stroke:#ffffff;stroke-width:6.69878720999999988;stroke-linejoin:round;stroke-miterlimit:4;stroke-opacity:1;stroke-dasharray:none"
             d="m -127.89118,939.24994 75.281255,10.0625 34.999999,43.9375 -110.281254,-54 z"
             id="path5694-8-4-94-3-6-9" />
          <path
             style="fill:#ffffff;fill-opacity:1;stroke:#ffffff;stroke-width:6.69878720999999988;stroke-linejoin:round;stroke-miterlimit:4;stroke-opacity:1;stroke-dasharray:none"
             d="m -130.45368,939.12494 -8.40625,78.62506 121.437504,-23.31256 -113.031254,-55.3125 z"
             id="path5692-8-4-4-2-6-0" />
          <path
             style="fill:#ffffff;fill-opacity:1;stroke:#ffffff;stroke-width:6.69878720999999988;stroke-linejoin:round;stroke-miterlimit:4;stroke-opacity:1;stroke-dasharray:none"
             d="m -130.45368,939.12494 113.031254,55.3125 -121.437504,23.31256 8.40625,-78.62506 z"
             id="path5690-7-4-1-6-4-0" />
          <path
             style="fill:#ffffff;fill-opacity:1;stroke:#ffffff;stroke-width:6.69878720999999988;stroke-linejoin:round;stroke-miterlimit:4;stroke-opacity:1;stroke-dasharray:none"
             d="m -131.39118,938.96864 -59.03125,13.0938 50.625,65.00006 8.40625,-78.09386 z"
             id="path5688-9-3-2-7-7-1" />
          <path
             style="fill:#ffffff;fill-opacity:1;stroke:#ffffff;stroke-width:6.69878720999999988;stroke-linejoin:round;stroke-miterlimit:4;stroke-opacity:1;stroke-dasharray:none"
             d="m -131.39118,938.96864 -8.40625,78.09386 -50.625,-65.00006 59.03125,-13.0938 z"
             id="path5686-3-6-8-1-0-5" />
          <path
             style="fill:#ffffff;fill-opacity:1;stroke:#ffffff;stroke-width:6.69878720999999988;stroke-linejoin:round;stroke-miterlimit:4;stroke-opacity:1;stroke-dasharray:none"
             d="m -331.17243,894.37496 -16.65625,46.43748 36.1875,11.0625 -19.53125,-57.49998 z"
             id="path5684-9-2-15-4-4-4" />
          <path
             style="fill:#ffffff;fill-opacity:1;stroke:#ffffff;stroke-width:6.69878720999999988;stroke-linejoin:round;stroke-miterlimit:4;stroke-opacity:1;stroke-dasharray:none"
             d="m -331.17243,894.37496 19.53125,57.49998 -36.1875,-11.0625 16.65625,-46.43748 z"
             id="path5682-0-9-41-6-5-5" />
          <path
             style="fill:#ffffff;fill-opacity:1;stroke:#ffffff;stroke-width:6.69878720999999988;stroke-linejoin:round;stroke-miterlimit:4;stroke-opacity:1;stroke-dasharray:none"
             d="m -60.984925,891.43746 -68.531255,46.62498 76.593755,10.1875 -8.0625,-56.81248 z"
             id="path5680-0-3-47-5-8-9" />
          <path
             style="fill:#ffffff;fill-opacity:1;stroke:#ffffff;stroke-width:6.69878720999999988;stroke-linejoin:round;stroke-miterlimit:4;stroke-opacity:1;stroke-dasharray:none"
             d="m -60.984925,891.43746 8.0625,56.81248 -76.593755,-10.1875 68.531255,-46.62498 z"
             id="path5678-7-7-83-1-6-6" />
          <path
             style="fill:#ffffff;fill-opacity:1;stroke:#ffffff;stroke-width:6.69878720999999988;stroke-linejoin:round;stroke-miterlimit:4;stroke-opacity:1;stroke-dasharray:none"
             d="m -280.42243,871.34366 30.625,92.87498 57.625,-12.7812 -55.5625,-71.34378 -32.6875,-8.75 z"
             id="path5676-9-3-4-9-3-4" />
          <path
             style="fill:#ffffff;fill-opacity:1;stroke:#ffffff;stroke-width:6.69878720999999988;stroke-linejoin:round;stroke-miterlimit:4;stroke-opacity:1;stroke-dasharray:none"
             d="m -280.42243,871.34366 32.6875,8.75 55.5625,71.34378 -57.625,12.7812 -30.625,-92.87498 z"
             id="path5674-6-5-2-0-4-4" />
          <path
             style="fill:#ffffff;fill-opacity:1;stroke:#ffffff;stroke-width:6.69878720999999988;stroke-linejoin:round;stroke-miterlimit:4;stroke-opacity:1;stroke-dasharray:none"
             d="m -281.45368,871.31246 -49.09375,21.8125 20.09375,59.09368 59.59375,11.9063 -30.59375,-92.81248 z"
             id="path5672-2-1-7-5-9-0" />
          <path
             style="fill:#ffffff;fill-opacity:1;stroke:#ffffff;stroke-width:6.69878720999999988;stroke-linejoin:round;stroke-miterlimit:4;stroke-opacity:1;stroke-dasharray:none"
             d="m -281.45368,871.31246 30.59375,92.81248 -59.59375,-11.9063 -20.09375,-59.09368 49.09375,-21.8125 z"
             id="path5670-8-9-5-7-1-9" />
          <path
             style="fill:#ffffff;fill-opacity:1;stroke:#ffffff;stroke-width:6.69878720999999988;stroke-linejoin:round;stroke-miterlimit:4;stroke-opacity:1;stroke-dasharray:none"
             d="m -103.98493,843.53126 -26,93.625 68.625005,-46.6563 -42.625005,-46.9687 z"
             id="path5668-4-2-1-7-8-1" />
          <path
             style="fill:#ffffff;fill-opacity:1;stroke:#ffffff;stroke-width:6.69878720999999988;stroke-linejoin:round;stroke-miterlimit:4;stroke-opacity:1;stroke-dasharray:none"
             d="m -103.98493,843.53126 42.625005,46.9687 -68.625005,46.6563 26,-93.625 z"
             id="path5666-1-8-4-4-6-2" />
          <path
             style="fill:#ffffff;fill-opacity:1;stroke:#ffffff;stroke-width:6.69878720999999988;stroke-linejoin:round;stroke-miterlimit:4;stroke-opacity:1;stroke-dasharray:none"
             d="m -207.48493,842.06246 -39.25,37.6562 55.65625,71.46878 59.34375,-13.1562 -75.75,-95.96878 z"
             id="path5664-7-1-6-5-3-6" />
          <path
             style="fill:#ffffff;fill-opacity:1;stroke:#ffffff;stroke-width:6.69878720999999988;stroke-linejoin:round;stroke-miterlimit:4;stroke-opacity:1;stroke-dasharray:none"
             d="m -207.48493,842.06246 75.75,95.96878 -59.34375,13.1562 -55.65625,-71.46878 39.25,-37.6562 z"
             id="path5662-7-3-0-1-8-5" />
          <path
             style="fill:#ffffff;fill-opacity:1;stroke:#ffffff;stroke-width:6.69878720999999988;stroke-linejoin:round;stroke-miterlimit:4;stroke-opacity:1;stroke-dasharray:none"
             d="m -206.39118,841.81246 75.3125,95.4688 26.1875,-94.2813 -101.5,-1.1875 z"
             id="path5660-9-3-3-5-9-9" />
          <path
             style="fill:#ffffff;fill-opacity:1;stroke:#ffffff;stroke-width:6.69878720999999988;stroke-linejoin:round;stroke-miterlimit:4;stroke-opacity:1;stroke-dasharray:none"
             d="m -206.39118,841.81246 101.5,1.1875 -26.1875,94.2813 -75.3125,-95.4688 z"
             id="path5658-0-3-2-9-9-5" />
        </g>
        <g
           style="stroke:#ffffff;stroke-opacity:1"
           transform="translate(-278.27605,100.97029)"
           id="g5939-5-9-5-2-0-8">
          <path
             style="fill:#ffffff;fill-opacity:1;stroke:#ffffff;stroke-opacity:1"
             d="m -245.73493,1045.4687 -24.3125,31.8438 68.96875,0 -44.65625,-31.8438 z"
             id="path5744-9-4-8-9-8-5-3" />
          <path
             style="fill:#ffffff;fill-opacity:1;stroke:#ffffff;stroke-opacity:1"
             d="m -245.73493,1045.4687 44.65625,31.8438 -68.96875,0 24.3125,-31.8438 z"
             id="path5742-5-5-7-0-8-5-7" />
          <path
             style="fill:#ffffff;fill-opacity:1;stroke:#ffffff;stroke-opacity:1"
             d="m -404.07868,1039.1875 c 1.10365,1.2019 17.49995,19.0561 35.46875,38.125 l 97.3125,0 24.5,-32.0625 -157.28125,-6.0625 z"
             id="path5740-6-5-6-5-4-0-4" />
          <path
             style="fill:#ffffff;fill-opacity:1;stroke:#ffffff;stroke-opacity:1"
             d="m -404.07868,1039.1875 157.28125,6.0625 -24.5,32.0625 -97.3125,0 c -17.9688,-19.0689 -34.3651,-36.9231 -35.46875,-38.125 z"
             id="path5738-9-3-5-0-7-9-5" />
          <path
             style="fill:#ffffff;fill-opacity:1;stroke:#ffffff;stroke-opacity:1"
             d="m -138.60993,1019 24.03125,58.3125 63.625005,0 32.531249,-36.3438 L -138.60993,1019 z"
             id="path5736-4-0-9-2-4-2-8" />
          <path
             style="fill:#ffffff;fill-opacity:1;stroke:#ffffff;stroke-opacity:1"
             d="m -138.60993,1019 120.187504,21.9687 -32.531249,36.3438 -63.625005,0 L -138.60993,1019 z"
             id="path5734-2-2-3-0-6-8-4" />
          <path
             style="fill:#ffffff;fill-opacity:1;stroke:#ffffff;stroke-opacity:1"
             d="M -139.73493,1018.9375 -244.64118,1045 l 45.3125,32.3125 83.6875,0 -24.09375,-58.375 z"
             id="path5732-9-4-8-0-0-1-3" />
          <path
             style="fill:#ffffff;fill-opacity:1;stroke:#ffffff;stroke-opacity:1"
             d="m -139.73493,1018.9375 24.09375,58.375 -83.6875,0 -45.3125,-32.3125 104.90625,-26.0625 z"
             id="path5730-7-6-2-6-6-0-7" />
          <path
             style="fill:#ffffff;fill-opacity:1;stroke:#ffffff;stroke-opacity:1"
             d="m -328.73493,999.65624 -74.59375,38.56246 155.40625,6 -80.8125,-44.56246 z"
             id="path5728-7-6-0-6-4-7-8" />
          <path
             style="fill:#ffffff;fill-opacity:1;stroke:#ffffff;stroke-opacity:1"
             d="m -328.73493,999.65624 80.8125,44.56246 -155.40625,-6 74.59375,-38.56246 z"
             id="path5726-6-2-8-1-8-8-3" />
          <path
             style="fill:#ffffff;fill-opacity:1;stroke:#ffffff;stroke-opacity:1"
             d="m -16.391176,995.28124 -120.375004,23.06246 118.812504,21.7188 1.5625,-44.78126 z"
             id="path5724-1-1-9-8-9-6-9" />
          <path
             style="fill:#ffffff;fill-opacity:1;stroke:#ffffff;stroke-opacity:1"
             d="m -16.391176,995.28124 -1.5625,44.78126 -118.812504,-21.7188 120.375004,-23.06246 z"
             id="path5722-8-5-6-4-9-3-9" />
          <path
             style="fill:#ffffff;fill-opacity:1;stroke:#ffffff;stroke-opacity:1"
             d="m -401.98493,984.93744 -2.75,52.90626 74.53125,-38.56246 -71.78125,-14.3438 z"
             id="path5720-3-0-4-2-0-4-3" />
          <path
             style="fill:#ffffff;fill-opacity:1;stroke:#ffffff;stroke-opacity:1"
             d="m -401.98493,984.93744 71.78125,14.3438 -74.53125,38.56246 2.75,-52.90626 z"
             id="path5718-6-0-2-3-8-2-1" />
          <path
             style="fill:#ffffff;fill-opacity:1;stroke:#ffffff;stroke-opacity:1"
             d="m -249.57868,965.62494 4.1875,78.53136 104.5,-25.9376 -108.6875,-52.59376 z"
             id="path5716-5-4-2-1-8-1-0" />
          <path
             style="fill:#ffffff;fill-opacity:1;stroke:#ffffff;stroke-opacity:1"
             d="m -249.57868,965.62494 108.6875,52.59376 -104.5,25.9376 -4.1875,-78.53136 z"
             id="path5714-5-5-6-5-3-6-8" />
          <path
             style="fill:#ffffff;fill-opacity:1;stroke:#ffffff;stroke-opacity:1"
             d="m -310.73493,953.71864 -17.28125,45 0.8125,0.1563 -0.4375,0.2187 80.09375,44.18766 -63.1875,-89.56266 z"
             id="path5712-9-2-4-9-2-8-6" />
          <path
             style="fill:#ffffff;fill-opacity:1;stroke:#ffffff;stroke-opacity:1"
             d="m -310.73493,953.71864 63.1875,89.56266 -80.09375,-44.18766 0.4375,-0.2187 -0.8125,-0.1563 17.28125,-45 z"
             id="path5710-7-5-5-8-4-6-5" />
          <path
             style="fill:#ffffff;fill-opacity:1;stroke:#ffffff;stroke-opacity:1"
             d="m -309.70368,953.37494 63.25,89.65636 -4.15625,-77.81266 -59.09375,-11.8437 z"
             id="path5708-3-5-5-5-0-4-9" />
          <path
             style="fill:#ffffff;fill-opacity:1;stroke:#ffffff;stroke-opacity:1"
             d="m -309.70368,953.37494 59.09375,11.8437 4.15625,77.81266 -63.25,-89.65636 z"
             id="path5706-7-9-7-3-5-4-4" />
          <path
             style="fill:#ffffff;fill-opacity:1;stroke:#ffffff;stroke-opacity:1"
             d="m -191.48493,952.31244 -57.15625,12.6562 107.5625,52.03136 -50.40625,-64.68756 z"
             id="path5704-0-6-0-4-6-2-1" />
          <path
             style="fill:#ffffff;fill-opacity:1;stroke:#ffffff;stroke-opacity:1"
             d="m -191.48493,952.31244 50.40625,64.68756 -107.5625,-52.03136 57.15625,-12.6562 z"
             id="path5702-4-1-7-8-1-9-4" />
          <path
             style="fill:#ffffff;fill-opacity:1;stroke:#ffffff;stroke-opacity:1"
             d="m -348.42243,941.62494 -17.75,6 -35.28125,36.4063 72.4375,14.4687 17.5,-45.5313 -36.90625,-11.3437 z"
             id="path5700-2-3-8-2-2-4-5" />
          <path
             style="fill:#ffffff;fill-opacity:1;stroke:#ffffff;stroke-opacity:1"
             d="m -348.42243,941.62494 36.90625,11.3437 -17.5,45.5313 -72.4375,-14.4687 35.28125,-36.4063 17.75,-6 z"
             id="path5698-8-7-2-9-3-3-0" />
          <path
             style="fill:#ffffff;fill-opacity:1;stroke:#ffffff;stroke-opacity:1"
             d="m -127.89118,939.24994 110.281254,54 -34.999999,-43.9375 -75.281255,-10.0625 z"
             id="path5696-4-7-7-1-0-9-5" />
          <path
             style="fill:#ffffff;fill-opacity:1;stroke:#ffffff;stroke-opacity:1"
             d="m -127.89118,939.24994 75.281255,10.0625 34.999999,43.9375 -110.281254,-54 z"
             id="path5694-8-4-9-7-6-2-7" />
          <path
             style="fill:#ffffff;fill-opacity:1;stroke:#ffffff;stroke-opacity:1"
             d="m -130.45368,939.12494 -8.40625,78.62506 121.437504,-23.31256 -113.031254,-55.3125 z"
             id="path5692-8-4-7-5-0-9-9" />
          <path
             style="fill:#ffffff;fill-opacity:1;stroke:#ffffff;stroke-opacity:1"
             d="m -130.45368,939.12494 113.031254,55.3125 -121.437504,23.31256 8.40625,-78.62506 z"
             id="path5690-7-4-0-1-1-0-3" />
          <path
             style="fill:#ffffff;fill-opacity:1;stroke:#ffffff;stroke-opacity:1"
             d="m -131.39118,938.96864 -59.03125,13.0938 50.625,65.00006 8.40625,-78.09386 z"
             id="path5688-9-3-4-2-1-4-8" />
          <path
             style="fill:#ffffff;fill-opacity:1;stroke:#ffffff;stroke-opacity:1"
             d="m -131.39118,938.96864 -8.40625,78.09386 -50.625,-65.00006 59.03125,-13.0938 z"
             id="path5686-3-6-5-9-2-0-6" />
          <path
             style="fill:#ffffff;fill-opacity:1;stroke:#ffffff;stroke-opacity:1"
             d="m -331.17243,894.37496 -16.65625,46.43748 36.1875,11.0625 -19.53125,-57.49998 z"
             id="path5684-9-2-1-8-5-0-1" />
          <path
             style="fill:#ffffff;fill-opacity:1;stroke:#ffffff;stroke-opacity:1"
             d="m -331.17243,894.37496 19.53125,57.49998 -36.1875,-11.0625 16.65625,-46.43748 z"
             id="path5682-0-9-4-1-2-9-3" />
          <path
             style="fill:#ffffff;fill-opacity:1;stroke:#ffffff;stroke-opacity:1"
             d="m -60.984925,891.43746 -68.531255,46.62498 76.593755,10.1875 -8.0625,-56.81248 z"
             id="path5680-0-3-4-1-2-5-3" />
          <path
             style="fill:#ffffff;fill-opacity:1;stroke:#ffffff;stroke-opacity:1"
             d="m -60.984925,891.43746 8.0625,56.81248 -76.593755,-10.1875 68.531255,-46.62498 z"
             id="path5678-7-7-8-6-1-0-5" />
          <path
             style="fill:#ffffff;fill-opacity:1;stroke:#ffffff;stroke-opacity:1"
             d="m -280.42243,871.34366 30.625,92.87498 57.625,-12.7812 -55.5625,-71.34378 -32.6875,-8.75 z"
             id="path5676-9-3-1-4-9-0-8" />
          <path
             style="fill:#ffffff;fill-opacity:1;stroke:#ffffff;stroke-opacity:1"
             d="m -280.42243,871.34366 32.6875,8.75 55.5625,71.34378 -57.625,12.7812 -30.625,-92.87498 z"
             id="path5674-6-5-3-3-7-7-1" />
          <path
             style="fill:#ffffff;fill-opacity:1;stroke:#ffffff;stroke-opacity:1"
             d="m -281.45368,871.31246 -49.09375,21.8125 20.09375,59.09368 59.59375,11.9063 -30.59375,-92.81248 z"
             id="path5672-2-1-3-8-9-1-1" />
          <path
             style="fill:#ffffff;fill-opacity:1;stroke:#ffffff;stroke-opacity:1"
             d="m -281.45368,871.31246 30.59375,92.81248 -59.59375,-11.9063 -20.09375,-59.09368 49.09375,-21.8125 z"
             id="path5670-8-9-9-6-1-2-1" />
          <path
             style="fill:#ffffff;fill-opacity:1;stroke:#ffffff;stroke-opacity:1"
             d="m -103.98493,843.53126 -26,93.625 68.625005,-46.6563 -42.625005,-46.9687 z"
             id="path5668-4-2-8-9-5-9-1" />
          <path
             style="fill:#ffffff;fill-opacity:1;stroke:#ffffff;stroke-opacity:1"
             d="m -103.98493,843.53126 42.625005,46.9687 -68.625005,46.6563 26,-93.625 z"
             id="path5666-1-8-5-5-6-8-9" />
          <path
             style="fill:#ffffff;fill-opacity:1;stroke:#ffffff;stroke-opacity:1"
             d="m -207.48493,842.06246 -39.25,37.6562 55.65625,71.46878 59.34375,-13.1562 -75.75,-95.96878 z"
             id="path5664-7-1-7-9-1-0-4" />
          <path
             style="fill:#ffffff;fill-opacity:1;stroke:#ffffff;stroke-opacity:1"
             d="m -207.48493,842.06246 75.75,95.96878 -59.34375,13.1562 -55.65625,-71.46878 39.25,-37.6562 z"
             id="path5662-7-3-7-9-5-7-2" />
          <path
             style="fill:#ffffff;fill-opacity:1;stroke:#ffffff;stroke-opacity:1"
             d="m -206.39118,841.81246 75.3125,95.4688 26.1875,-94.2813 -101.5,-1.1875 z"
             id="path5660-9-3-1-1-5-2-0" />
          <path
             style="fill:#ffffff;fill-opacity:1;stroke:#ffffff;stroke-opacity:1"
             d="m -206.39118,841.81246 101.5,1.1875 -26.1875,94.2813 -75.3125,-95.4688 z"
             id="path5658-0-3-4-3-3-6-7" />
        </g>
        <g
           style="stroke:#ffffff;stroke-opacity:1"
           transform="translate(-278.27605,100.97029)"
           id="g5939-52-3-2-3">
          <path
             style="opacity:0.31851855000000001;fill:#6592cf;fill-opacity:1;stroke:#ffffff;stroke-opacity:1"
             d="m -331.17243,894.37496 19.53125,57.49998 -36.1875,-11.0625 16.65625,-46.43748 z"
             id="path5682-0-3-0-5-0" />
          <path
             style="opacity:0.31851855000000001;fill:#6592cf;fill-opacity:1;stroke:#ffffff;stroke-opacity:1"
             d="m -281.45368,871.31246 30.59375,92.81248 -59.59375,-11.9063 -20.09375,-59.09368 49.09375,-21.8125 z"
             id="path5670-8-7-1-2-8" />
          <path
             style="opacity:0.75555558000000000;fill:#6592cf;fill-opacity:1;stroke:#ffffff;stroke-opacity:1"
             d="m -249.57868,965.62494 108.6875,52.59376 -104.5,25.9376 -4.1875,-78.53136 z"
             id="path5714-5-9-4-0-9" />
          <path
             style="opacity:0.69999999999999996;fill:#6592cf;fill-opacity:1;stroke:#ffffff;stroke-opacity:1"
             d="m -191.48493,952.31244 50.40625,64.68756 -107.5625,-52.03136 57.15625,-12.6562 z"
             id="path5702-4-4-6-3-5" />
          <path
             style="fill:#0c3772;fill-opacity:1;stroke:#ffffff;stroke-opacity:1"
             d="m -16.391176,995.28124 -1.5625,44.78126 -118.812504,-21.7188 120.375004,-23.06246 z"
             id="path5722-8-3-7-9-9" />
          <path
             style="fill:#0c3772;fill-opacity:1;stroke:#ffffff;stroke-opacity:1"
             d="m -138.60993,1019 120.187504,21.9687 -32.531249,36.3438 -63.625005,0 L -138.60993,1019 z"
             id="path5734-2-6-0-5-4" />
          <path
             style="opacity:0.85775864999999996;fill:#0c3772;fill-opacity:1;stroke:#ffffff;stroke-opacity:1"
             d="m -139.73493,1018.9375 24.09375,58.375 -83.6875,0 -45.3125,-32.3125 104.90625,-26.0625 z"
             id="path5730-7-7-6-5-6" />
          <path
             style="opacity:0.78518520999999997;fill:#a5c0e3;fill-opacity:1;stroke:#ffffff;stroke-opacity:1"
             d="m -310.73493,953.71864 -17.28125,45 0.8125,0.1563 -0.4375,0.2187 80.09375,44.18766 -63.1875,-89.56266 z"
             id="path5712-9-9-5-8-5" />
          <path
             style="opacity:0.76666666999999999;fill:#8aaddb;fill-opacity:1;stroke:#ffffff;stroke-opacity:1"
             d="m -309.70368,953.37494 63.25,89.65636 -4.15625,-77.81266 -59.09375,-11.8437 z"
             id="path5708-3-4-6-1-9" />
          <path
             style="opacity:0.31851855000000001;fill:#0c3772;fill-opacity:1;stroke:#ffffff;stroke-opacity:1"
             d="m -207.48493,842.06246 75.75,95.96878 -59.34375,13.1562 -55.65625,-71.46878 39.25,-37.6562 z"
             id="path5662-7-0-9-1-9" />
          <path
             style="opacity:0.31851855000000001;fill:#0c3772;fill-opacity:1;stroke:#ffffff;stroke-opacity:1"
             d="m -206.39118,841.81246 101.5,1.1875 -26.1875,94.2813 -75.3125,-95.4688 z"
             id="path5658-0-9-7-9-3" />
          <path
             style="opacity:0.31851855000000001;fill:#0c3772;fill-opacity:1;stroke:#ffffff;stroke-opacity:1"
             d="m -103.98493,843.53126 42.625005,46.9687 -68.625005,46.6563 26,-93.625 z"
             id="path5666-1-5-1-3-8" />
          <path
             style="opacity:0.74814811999999997;fill:#0c3772;fill-opacity:1;stroke:#ffffff;stroke-opacity:1"
             d="m -60.984925,891.43746 8.0625,56.81248 -76.593755,-10.1875 68.531255,-46.62498 z"
             id="path5678-7-9-2-2-8" />
          <path
             style="opacity:0.77037036000000003;fill:#0c3772;fill-opacity:1;stroke:#ffffff;stroke-opacity:1"
             d="m -127.89118,939.24994 75.281255,10.0625 34.999999,43.9375 -110.281254,-54 z"
             id="path5694-8-6-4-9-6" />
          <path
             style="opacity:0.77407406000000001;fill:#0c3772;fill-opacity:1;stroke:#ffffff;stroke-opacity:1"
             d="m -130.45368,939.12494 113.031254,55.3125 -121.437504,23.31256 8.40625,-78.62506 z"
             id="path5690-7-8-2-7-6" />
          <path
             style="opacity:0.69999999999999996;fill:#0c3772;fill-opacity:1;stroke:#ffffff;stroke-opacity:1"
             d="m -131.39118,938.96864 -8.40625,78.09386 -50.625,-65.00006 59.03125,-13.0938 z"
             id="path5686-3-1-5-2-4" />
          <path
             style="fill:#6592cf;fill-opacity:1;stroke:#ffffff;stroke-opacity:1"
             d="m -245.73493,1045.4687 -24.3125,31.8438 68.96875,0 -44.65625,-31.8438 z"
             id="path5744-9-6-7-0-9" />
          <path
             style="opacity:0.84482756999999997;fill:#6592cf;fill-opacity:1;stroke:#ffffff;stroke-opacity:1"
             d="m -404.07868,1039.1875 c 1.10365,1.2019 17.49995,19.0561 35.46875,38.125 l 97.3125,0 24.5,-32.0625 -157.28125,-6.0625 z"
             id="path5740-6-9-6-9-0" />
          <path
             style="opacity:0.84444423999999996;fill:#a5c0e3;fill-opacity:1;stroke:#ffffff;stroke-opacity:1"
             d="m -328.73493,999.65624 -74.59375,38.56246 155.40625,6 -80.8125,-44.56246 z"
             id="path5728-7-4-3-9-9" />
          <path
             style="opacity:0.69999999999999996;fill:#c6d5e3;fill-opacity:1;stroke:#ffffff;stroke-opacity:1"
             d="m -401.98493,984.93744 -2.75,52.90626 74.53125,-38.56246 -71.78125,-14.3438 z"
             id="path5720-3-9-9-0-4" />
          <path
             style="opacity:0.31851855000000001;fill:#c6d5e3;fill-opacity:1;stroke:#ffffff;stroke-opacity:1"
             d="m -348.42243,941.62494 -17.75,6 -35.28125,36.4063 72.4375,14.4687 17.5,-45.5313 -36.90625,-11.3437 z"
             id="path5700-2-5-8-9-8" />
          <path
             style="opacity:0.31851855000000001;fill:#737d34;fill-opacity:0.27160495000000001;stroke:#ffffff;stroke-opacity:1"
             d="m -280.42243,871.34366 30.625,92.87498 57.625,-12.7812 -55.5625,-71.34378 -32.6875,-8.75 z"
             id="path5676-9-38-5-6-1" />
          <path
             style="opacity:0.47407406000000002;fill:#6592cf;fill-opacity:1;stroke:#ffffff;stroke-opacity:1"
             d="m -280.42243,871.34366 32.6875,8.75 55.5625,71.34378 -57.625,12.7812 -30.625,-92.87498 z"
             id="path5674-6-4-6-3-8" />
        </g>
      </g>
    </g>
    <g
       id="text6522-7"
       style="font-style:normal;font-weight:normal;font-size:26.63059616px;line-height:125%;font-family:Sans;letter-spacing:0px;word-spacing:0px;fill:#000000;fill-opacity:1;stroke:none"
       transform="scale(1.0831004,0.92327544)">
      <path
         id="path4643"
         style="font-style:normal;font-variant:normal;font-weight:bold;font-stretch:normal;font-family:qontra;-inkscape-font-specification:'qontra Bold';fill:#000000;fill-opacity:1"
         d="m 18.517882,1107.1108 -2.103817,0 -3.728284,16.8572 -3.5951304,-16.8572 -2.1038171,0 1.4380522,6.7908 -2.1304477,10.0664 -3.5951305,-16.8572 -2.10381709,0 3.99458939,18.9078 3.4087163,0 1.4646828,-7.1903 1.5179441,7.1903 3.408716,0 4.127743,-18.9078 z" />
      <path
         id="path4645"
         style="font-style:normal;font-variant:normal;font-weight:bold;font-stretch:normal;font-family:qontra;-inkscape-font-specification:'qontra Bold';fill:#000000;fill-opacity:1"
         d="m 23.243148,1109.1614 7.776134,0 0,-2.0506 -9.82669,0 0,18.9078 9.82669,0 0,-2.0506 -7.776134,0 0,-6.924 6.497865,0 0,-2.0505 -6.497865,0 0,-5.8321 z" />
      <path
         id="path4647"
         style="font-style:normal;font-variant:normal;font-weight:bold;font-stretch:normal;font-family:qontra;-inkscape-font-specification:'qontra Bold';fill:#000000;fill-opacity:1"
         d="m 44.061615,1109.1614 0,-2.0506 -10.385932,0 0,2.0506 4.181004,0 0,16.8572 2.050555,0 0,-16.8572 4.154373,0 z" />
      <path
         id="path4649"
         style="font-style:normal;font-variant:normal;font-weight:bold;font-stretch:normal;font-family:qontra;-inkscape-font-specification:'qontra Bold';fill:#000000;fill-opacity:1"
         d="m 57.116852,1109.1614 0,-2.0506 -10.385932,0 0,2.0506 4.181003,0 0,16.8572 2.050556,0 0,-16.8572 4.154373,0 z" />
      <path
         id="path4651"
         style="font-style:normal;font-variant:normal;font-weight:bold;font-stretch:normal;font-family:qontra;-inkscape-font-specification:'qontra Bold';fill:#000000;fill-opacity:1"
         d="m 61.836709,1109.1614 7.776134,0 0,-2.0506 -9.82669,0 0,18.9078 9.82669,0 0,-2.0506 -7.776134,0 0,-6.924 6.497865,0 0,-2.0505 -6.497865,0 0,-5.8321 z" />
      <path
         id="path4653"
         style="font-style:normal;font-variant:normal;font-weight:bold;font-stretch:normal;font-family:qontra;-inkscape-font-specification:'qontra Bold';fill:#000000;fill-opacity:1"
         d="m 80.65788,1126.0186 2.183709,0 -3.248933,-8.8414 c 2.583168,-0.8522 2.636429,-2.9826 2.636429,-4.8468 0,-2.3701 -0.106522,-5.2196 -5.406011,-5.2196 l -4.553832,0 0,18.9078 2.050556,0 0,-8.4686 2.503276,0 0.719026,-0.027 3.11578,8.4952 z m -6.338082,-10.5191 0,-6.3381 2.503276,0 c 3.5685,0 3.408716,1.8109 3.408716,3.169 0,1.6245 0.159784,3.1691 -3.408716,3.1691 l -2.503276,0 z" />
      <path
         id="path4655"
         style="font-style:normal;font-variant:normal;font-weight:bold;font-stretch:normal;font-family:qontra;-inkscape-font-specification:'qontra Bold';fill:#000000;fill-opacity:1"
         d="m 94.982232,1109.1614 0,-2.0506 -10.385933,0 0,2.0506 4.181004,0 0,16.8572 2.050556,0 0,-16.8572 4.154373,0 z" />
      <path
         id="path4657"
         style="font-style:normal;font-variant:normal;font-weight:bold;font-stretch:normal;font-family:qontra;-inkscape-font-specification:'qontra Bold';fill:#000000;fill-opacity:1"
         d="m 108.51681,1107.1108 -1.99729,0 0,9.4805 c 0,6.1251 -0.39946,7.643 -3.43535,7.643 -3.03589,0 -3.435347,-1.5179 -3.435347,-7.643 l 0,-9.4805 -1.997295,0 0,9.4805 c 0,7.1903 0.665765,9.6936 5.432642,9.6936 4.76688,0 5.43264,-2.5033 5.43264,-9.6936 l 0,-9.4805 z" />
      <path
         id="path4659"
         style="font-style:normal;font-variant:normal;font-weight:bold;font-stretch:normal;font-family:qontra;-inkscape-font-specification:'qontra Bold';fill:#000000;fill-opacity:1"
         d="m 119.56352,1126.0186 2.18371,0 -3.24893,-8.8414 c 2.58316,-0.8522 2.63642,-2.9826 2.63642,-4.8468 0,-2.3701 -0.10652,-5.2196 -5.40601,-5.2196 l -4.55383,0 0,18.9078 2.05056,0 0,-8.4686 2.50327,0 0.71903,-0.027 3.11578,8.4952 z m -6.33808,-10.5191 0,-6.3381 2.50327,0 c 3.5685,0 3.40872,1.8109 3.40872,3.169 0,1.6245 0.15978,3.1691 -3.40872,3.1691 l -2.50327,0 z" />
      <path
         id="path4661"
         style="font-style:normal;font-variant:normal;font-weight:bold;font-stretch:normal;font-family:qontra;-inkscape-font-specification:'qontra Bold';fill:#000000;fill-opacity:1"
         d="m 135.11454,1107.1108 -2.05056,0 0,13.8479 -6.47123,-13.8479 -2.05056,0 0,18.9078 2.05056,0 0,-13.848 6.47123,13.848 2.05056,0 0,-18.9078 z" />
      <path
         id="path4663"
         style="font-style:normal;font-variant:normal;font-weight:bold;font-stretch:normal;font-family:qontra;-inkscape-font-specification:'qontra Bold';fill:#000000;fill-opacity:1"
         d="m 139.85728,1126.0186 -2.10382,0 0,-18.9078 2.10382,0 0,18.9078 z" />
      <path
         id="path4665"
         style="font-style:normal;font-variant:normal;font-weight:bold;font-stretch:normal;font-family:qontra;-inkscape-font-specification:'qontra Bold';fill:#000000;fill-opacity:1"
         d="m 144.58921,1109.1614 7.77613,0 0,-2.0506 -9.82669,0 0,18.9078 9.82669,0 0,-2.0506 -7.77613,0 0,-6.924 6.49786,0 0,-2.0505 -6.49786,0 0,-5.8321 z" />
      <path
         id="path4667"
         style="font-style:normal;font-variant:normal;font-weight:bold;font-stretch:normal;font-family:qontra;-inkscape-font-specification:'qontra Bold';fill:#000000;fill-opacity:1"
         d="m 163.41038,1126.0186 2.18371,0 -3.24893,-8.8414 c 2.58317,-0.8522 2.63643,-2.9826 2.63643,-4.8468 0,-2.3701 -0.10652,-5.2196 -5.40601,-5.2196 l -4.55384,0 0,18.9078 2.05056,0 0,-8.4686 2.50328,0 0.71902,-0.027 3.11578,8.4952 z m -6.33808,-10.5191 0,-6.3381 2.50328,0 c 3.5685,0 3.40871,1.8109 3.40871,3.169 0,1.6245 0.15979,3.1691 -3.40871,3.1691 l -2.50328,0 z" />
    </g>
    <g
       id="text6522-3-8"
       style="font-style:normal;font-weight:normal;font-size:11.55056572px;line-height:125%;font-family:Sans;letter-spacing:0px;word-spacing:0px;fill:#ffffff;fill-opacity:1;stroke:none"
       transform="scale(1.0831004,0.92327544)">
      <path
         id="path4638"
         style="font-style:normal;font-variant:normal;font-weight:bold;font-stretch:normal;font-family:qontra;-inkscape-font-specification:'qontra Bold';fill:#ffffff"
         d="m 78.087347,1130.3529 0,8.2009 2.263911,0 c 2.067551,0 2.344765,-1.2359 2.344765,-3.881 l 0,-0.4389 c 0,-2.6451 -0.277214,-3.881 -2.344765,-3.881 l -2.263911,0 z m 3.742384,4.2506 c 0,2.2755 -0.161708,3.0609 -1.478473,3.0609 l -1.374517,0 0,-6.4221 1.374517,0 c 1.316765,0 1.478473,0.7855 1.478473,3.0609 l 0,0.3003 z" />
      <path
         id="path4640"
         style="font-style:normal;font-variant:normal;font-weight:bold;font-stretch:normal;font-family:qontra;-inkscape-font-specification:'qontra Bold';fill:#ffffff"
         d="m 84.729464,1131.2423 3.372765,0 0,-0.8894 -4.262158,0 0,8.2009 4.262158,0 0,-0.8894 -3.372765,0 0,-3.0031 2.818338,0 0,-0.8894 -2.818338,0 0,-2.5296 z" />
    </g>
    <path
       id="path3205-4"
       d="m 81.476634,1047.6615 -79.7521447,0"
       style="fill:none;stroke:#ffffff;stroke-width:1.88552833000000009;stroke-linecap:butt;stroke-linejoin:miter;stroke-miterlimit:4;stroke-opacity:1;stroke-dasharray:none" />
    <path
       id="path3205-4-4"
       d="m 178.41226,1047.3816 -79.752149,0"
       style="fill:none;stroke:#ffffff;stroke-width:1.88552833000000009;stroke-linecap:butt;stroke-linejoin:miter;stroke-miterlimit:4;stroke-opacity:1;stroke-dasharray:none" />
  </g>
</svg>
